<?xml version="1.0" encoding="UTF-8" standalone="no"?>
<svg
   xmlns:dc="http://purl.org/dc/elements/1.1/"
   xmlns:cc="http://creativecommons.org/ns#"
   xmlns:rdf="http://www.w3.org/1999/02/22-rdf-syntax-ns#"
   xmlns:svg="http://www.w3.org/2000/svg"
   xmlns="http://www.w3.org/2000/svg"
   xmlns:sodipodi="http://sodipodi.sourceforge.net/DTD/sodipodi-0.dtd"
   xmlns:inkscape="http://www.inkscape.org/namespaces/inkscape"
   width="210mm"
   height="297mm"
   viewBox="0 0 210 297"
   version="1.1"
   id="svg8"
   inkscape:version="1.0.1 (c497b03c, 2020-09-10)"
   sodipodi:docname="logo.svg">
  <defs
     id="defs2" />
  <sodipodi:namedview
     id="base"
     pagecolor="#ffffff"
     bordercolor="#666666"
     borderopacity="1.0"
     inkscape:pageopacity="0.0"
     inkscape:pageshadow="2"
     inkscape:zoom="0.52738496"
     inkscape:cx="472.69632"
     inkscape:cy="439.90636"
     inkscape:document-units="mm"
     inkscape:current-layer="layer1"
     inkscape:document-rotation="0"
     showgrid="false"
     inkscape:window-width="776"
     inkscape:window-height="717"
     inkscape:window-x="408"
     inkscape:window-y="23"
     inkscape:window-maximized="0" />
  <metadata
     id="metadata5">
    <rdf:RDF>
      <cc:Work
         rdf:about="">
        <dc:format>image/svg+xml</dc:format>
        <dc:type
           rdf:resource="http://purl.org/dc/dcmitype/StillImage" />
        <dc:title></dc:title>
      </cc:Work>
    </rdf:RDF>
  </metadata>
  <g
     inkscape:label="Layer 1"
     inkscape:groupmode="layer"
     id="layer1">
    <path
       style="fill:#ff0000;fill-opacity:1;stroke:#000000;stroke-width:0.269716px;stroke-linecap:butt;stroke-linejoin:miter;stroke-opacity:1"
       d="M 107.94663,5.0140161 C 89.89536,13.442154 71.133165,21.657014 66.066779,33.980616 c 0,0 46.047301,-26.4746963 82.027211,-15.985128 L 86.352143,45.709342 C 115.28365,70.179317 111.45552,65.907943 115.28365,70.179317 94.839534,76.829544 86.443767,77.351043 75.255426,72.545521 64.067085,67.739999 67.962579,63.906792 54.548916,67.455058 51.262055,70.792664 42.833868,85.316063 34.788661,87.865388 25.652307,90.969407 5.8757669,77.038472 4.0454025,63.800845 12.832782,61.749575 27.691228,59.482065 37.29582,35.549302 41.380764,25.370423 72.703159,9.2290388 107.94663,5.0140161 Z"
       id="path10"
       sodipodi:nodetypes="ccccczcccsc" />
    <path
       style="opacity:0.32;fill:#ff0000;fill-opacity:0;stroke-width:1.10267"
       d="m 484.8513,328.53354 c -10.19154,-0.98044 -56.42687,-7.06134 -63.74474,-8.38374 -2.00701,-0.36269 -9.94625,-4.61467 -17.64274,-9.44883 -7.69648,-4.83418 -17.39972,-10.51456 -21.56273,-12.62309 -15.25283,-7.7254 -32.71162,-9.94496 -50.88105,-6.46857 -6.96536,1.33269 -9.25589,2.32872 -12.87561,5.59892 -10.12648,9.14866 -28.05424,18.84174 -47.62364,25.74889 -8.65843,3.05604 -10.16033,3.28278 -14.81134,2.23607 -2.84673,-0.64066 -16.09231,-2.64134 -29.43464,-4.44596 -27.50263,-3.71987 -34.70585,-5.34094 -43.53333,-9.79704 -9.75806,-4.92585 -10.05593,-5.91053 -2.79367,-9.23529 8.67794,-3.97289 17.5096,-12.88765 32.91904,-33.22877 27.96557,-36.91572 40.91946,-46.82974 73.50357,-56.25457 37.26036,-10.77743 84.2683,-21.48377 94.32796,-21.48377 5.099,0 5.27124,0.0924 3.05956,1.64153 -1.289,0.90285 -14.42471,8.15469 -29.19048,16.1152 -14.76577,7.96052 -27.0291,14.64034 -27.25184,14.84407 -0.22274,0.20372 -0.65896,2.62382 -0.9694,5.378 -0.79852,7.08442 0.86215,8.75537 7.95703,8.00632 7.19409,-0.75952 11.19741,-2.14971 43.93645,-15.2573 43.54352,-17.43333 69.09764,-25.56238 95.03355,-30.23122 11.19644,-2.01552 45.76963,-3.5493 45.74492,-2.0294 -0.009,0.5398 -25.9209,13.46725 -57.58251,28.72766 -31.6616,15.26042 -57.72069,28.2086 -57.90907,28.77375 -0.19771,0.59314 8.41251,1.34873 20.36735,1.78733 62.50361,2.29313 100.08531,11.46507 117.24246,28.61341 4.07931,4.07721 7.27136,8.94659 11.19361,17.07555 3.01781,6.2545 6.95046,13.03868 8.7392,15.07594 l 3.25225,3.70413 -3.62258,2.71912 c -6.11638,4.59097 -14.75977,8.40553 -24.29062,10.72008 -10.80687,2.62443 -35.6873,3.64827 -51.55696,2.12158 z"
       id="path12"
       transform="scale(0.26458333)" />
    <path
       style="fill:#ff8080;stroke:#000000;stroke-width:0.264583px;stroke-linecap:butt;stroke-linejoin:miter;stroke-opacity:1"
       d="m 115.28365,70.179317 c 20.82073,33.332553 33.56886,27.853203 39.92807,30.821263 0,0 46.02251,12.51307 43.40239,-12.159819 10.75624,69.513699 -37.98363,34.690769 -69.80296,26.402579 -17.657,-4.64658 -47.736267,-3.06002 -47.736267,-3.06002 -3.517051,15.16164 -74.8311437,41.31444 -47.88461,22.75365 20.936678,-48.081216 17.189625,-17.06731 59.201248,-58.719429"
       id="path2853"
       sodipodi:nodetypes="csccscc" />
    <path
       style="fill:#ff0000;stroke:#000000;stroke-width:0.264583px;stroke-linecap:butt;stroke-linejoin:miter;stroke-opacity:1"
       d="m 58.445785,101.49156 c 1.389261,0.39693 -12.972046,-3.08557 -41.290123,15.24613 -28.318077,18.3317 -15.7483582,76.04916 8.022528,99.51381 23.770886,23.46465 62.338292,21.20581 62.338292,21.20581 C 54.01248,198.16762 79.440787,215.80018 54.01248,198.16762 28.584173,180.53506 21.354947,159.68581 33.190273,134.93697"
       id="path2875"
       sodipodi:nodetypes="czzczc" />
    <path
       style="fill:#ff8080;stroke:#000000;stroke-width:0.264583px;stroke-linecap:butt;stroke-linejoin:miter;stroke-opacity:1"
       d="m 87.516482,237.45731 c 34.660258,5.74781 87.445048,10.19892 91.993998,-8.13157 -10.40735,3.37842 -20.34928,7.53254 -35.48565,3.02927 15.88526,-18.28225 11.54731,-31.35478 13.41531,-41.54417 12.40326,2.66749 16.75882,-4.1969 20.54934,-5.83578 0,0 23.46745,-6.2312 31.38087,-26.6206 -11.94487,-2.57169 -21.85645,6.39564 -60.15249,-10e-6 -17.90415,-29.72793 -33.55248,-24.78255 -47.16994,-26.8306 -10.029931,6.43718 -20.855825,8.72949 -19.041074,19.47383 29.428104,-22.94761 43.766054,-5.80939 49.766444,19.90658 3.55948,14.94586 3.71129,30.17568 -12.11705,46.73719 -18.42835,14.33302 -66.64376,-19.47383 -66.64376,-19.47383 z"
       id="path2877"
       sodipodi:nodetypes="ccccccccccccc" />
    <path
       style="fill:#ff0000;stroke:#000000;stroke-width:0.264583px;stroke-linecap:butt;stroke-linejoin:miter;stroke-opacity:1"
       d="m 102.04792,131.52385 c -22.870443,2.68168 -39.154171,23.48542 -36.750048,27.66189 -7.734426,14.3953 3.978023,29.07016 3.978023,29.07016 5.427966,10.13958 9.685427,13.72394 14.382079,14.38209 4.440177,2.748 30.828666,3.06416 29.988166,-2.44802 3.20711,-3.87602 3.99082,-17.8501 -0.91801,-21.72612 -3.71338,-2.65202 -18.034627,-8.67005 -24.786134,-11.32207 0,0 -12.103405,-1.13342 -4.93515,-16.1441"
       id="path2879"
       sodipodi:nodetypes="cccccccc" />
  </g>
</svg>
